<svg xmlns="http://www.w3.org/2000/svg" xmlns:xlink="http://www.w3.org/1999/xlink" width="181" height="127" viewBox="0 0 181 127"><defs><style>.a,.d{fill:none;}.b{opacity:0.671;}.c{clip-path:url(#a);}.d{stroke:#707070;stroke-linecap:square;stroke-miterlimit:10;stroke-width:4px;}</style><clipPath id="a"><path class="a" d="M2.575,70.846C-6.68,31.37,8.625,0,54.836,0s77.789,26.686,103.778,39.209S190.158,90,163.546,90s-57.356,20.324-83.169,33.558S11.829,110.322,2.575,70.846Z" transform="translate(0)"/></clipPath></defs><g class="b"><path class="a" d="M2.575,70.846C-6.68,31.37,8.625,0,54.836,0s77.789,26.686,103.778,39.209S190.158,90,163.546,90s-57.356,20.324-83.169,33.558S11.829,110.322,2.575,70.846Z" transform="translate(0)"/><g class="c"><g transform="translate(-91 -43)"><g transform="translate(0.026 0.351)"><path class="d" d="M153.287,0,0,193.412" transform="translate(0.433 0.44)"/><path class="d" d="M153.287,0,0,193.412" transform="translate(9.093 0.44)"/><path class="d" d="M153.287,0,0,193.412" transform="translate(17.754 0.44)"/><path class="d" d="M153.287,0,0,193.412" transform="translate(26.414 0.44)"/><path class="d" d="M153.287,0,0,193.412" transform="translate(35.074 0.44)"/><path class="d" d="M153.287,0,0,193.412" transform="translate(43.734 0.44)"/><path class="d" d="M153.287,0,0,193.412" transform="translate(52.395 0.44)"/><path class="d" d="M153.287,0,0,193.412" transform="translate(61.055 0.44)"/><path class="d" d="M153.287,0,0,193.412" transform="translate(69.715 0.44)"/><path class="d" d="M153.287,0,0,193.412" transform="translate(78.376 0.44)"/><path class="d" d="M153.287,0,0,193.412" transform="translate(87.036 0.44)"/><path class="d" d="M153.287,0,0,193.412" transform="translate(95.696 0.44)"/><path class="d" d="M153.287,0,0,193.412" transform="translate(104.356 0.44)"/><path class="d" d="M153.287,0,0,193.412" transform="translate(113.017 0.44)"/><path class="d" d="M153.287,0,0,193.412" transform="translate(121.677 0.44)"/><path class="d" d="M153.287,0,0,193.412" transform="translate(130.337 0.44)"/><path class="d" d="M153.287,0,0,193.412" transform="translate(138.998 0.44)"/><path class="d" d="M153.287,0,0,193.412" transform="translate(147.658 0.44)"/><path class="d" d="M153.287,0,0,193.412" transform="translate(156.318 0.44)"/><path class="d" d="M153.287,0,0,193.412" transform="translate(164.978 0.44)"/><path class="d" d="M153.287,0,0,193.412" transform="translate(173.639 0.44)"/><path class="d" d="M153.287,0,0,193.412" transform="translate(182.299 0.44)"/><path class="d" d="M153.287,0,0,193.412" transform="translate(190.959 0.44)"/><path class="d" d="M153.287,0,0,193.412" transform="translate(199.62 0.44)"/><path class="d" d="M153.287,0,0,193.412" transform="translate(208.28 0.44)"/></g></g></g></g></svg>